<svg clip-rule="evenodd" fill-rule="evenodd" height="2048" image-rendering="optimizeQuality" shape-rendering="geometricPrecision" text-rendering="geometricPrecision" viewBox="0 0 2048 2048" width="2048" xmlns="http://www.w3.org/2000/svg"><g fill="#424242"><path d="m820.425 1348.54h407.149c17.6728 0 32.0008 14.328 32.0008 32.0008v219.234c0 17.6728-14.328 32.0008-32.0008 32.0008h-407.149c-17.6728 0-32.0008-14.328-32.0008-32.0008v-219.234c0-17.6728 14.328-32.0008 32.0008-32.0008z" fill-rule="nonzero"/><path d="m615.513 1631.77c-17.6728 0-32.0008-14.328-32.0008-32.0008s14.328-32.0008 32.0008-32.0008h816.974c17.6728 0 32.0008 14.328 32.0008 32.0008s-14.328 32.0008-32.0008 32.0008z" fill-rule="nonzero"/><path d="m459.216 975.721c-8.83583 0-16.0004-7.16457-16.0004-16.0004s7.16457-16.0004 16.0004-16.0004h72.0024l38.1555-160.769c2.03622-8.59371 10.6559-13.911 19.2496-11.8748 6.68386 1.58386 11.3847 7.15158 12.1866 13.5898l41.8973 272.323 57.1146-171.343c2.76024-8.35276 11.7721-12.8858 20.1248-10.1256 5.4189 1.79055 9.23032 6.2126 10.4847 11.3787l.0153543-.00354331 23.6906 96.9993 91.0938-284.668c2.69173-8.38701 11.6752-13.0051 20.0622-10.3134 5.96693 1.91457 10.0252 7.01457 10.9016 12.8185l.0366142-.00590552 52.9359 349.083 30.737-87.4075c2.89843-8.31851 11.9941-12.711 20.3126-9.81261 2.34921.818505 4.38544 2.13071 6.03189 3.78071l.0307087-.0307087 36.3579 36.3579 42.0874-84.1737c3.93425-7.86969 13.5047-11.0599 21.3744-7.1256 3.21496 1.60748 5.64685 4.1563 7.13386 7.14331l21.5563 43.1103h473.993c8.83583 0 16.0004 7.16457 16.0004 16.0004s-7.16457 16.0004-16.0004 16.0004h-483.806v-.0661418c-5.84056-.00590552-11.4614-3.2315-14.25-8.80985l-11.752-23.504-37.0914 74.1816c-.779528 2.00906-1.97835 3.89292-3.6 5.51457-6.24686 6.24686-16.3784 6.24686-22.6252 0l-34.0677-34.0677-43.2 122.845c-1.61929 5.92205-6.59292 10.6358-13.0536 11.6055-8.7319 1.31102-16.8768-4.70552-18.1878-13.4374l-52.3182-345.013-87.5658 273.644-.00236221-.0011811c-1.64646 5.11063-5.83465 9.27166-11.4354 10.6264-8.55946 2.07047-17.1791-3.19016-19.2496-11.7496l-24.0036-98.2796-60.0745 180.223c-1.46811 6.15945-6.53859 11.1142-13.1835 12.1122-8.7319 1.31102-16.8768-4.70552-18.1878-13.4374l-39.5433-257.023-22.037 92.856c-1.46339 7.32756-7.93229 12.8492-15.6898 12.8492h-84.6426zm634.009-66.1973.00826772.0177165" fill-rule="nonzero"/><path d="m423.854 534.54h1200.29c12.4913 0 23.8347 5.09764 32.0492 13.3122.357874.357874.694489.729922 1.01102 1.11142 7.62048 8.14371 12.3012 19.037 12.3012 30.9378v668.962c0 12.4488-5.1 23.7732-13.3122 31.9878l-.0625985.0625985c-8.21457 8.21221-19.539 13.3122-31.9866 13.3122h-1200.29c-12.4476 0-23.7721-5.1-31.9866-13.3122l-.0625985-.0625985c-8.21221-8.21457-13.3122-19.539-13.3122-31.9878v-668.962c0-12.4347 5.10945-23.7697 13.3441-32.0173l-.0318898-.0318898c8.21457-8.21457 19.5579-13.3122 32.0492-13.3122zm1368.15 845.996v-932.307c0-17.6728-14.328-32.0008-32.0008-32.0008h-1472c-17.6728 0-32.0008 14.328-32.0008 32.0008v932.307c0 17.6728 14.328 32.0008 32.0008 32.0008h500.425 471.15 500.425c17.6728 0 32.0008-14.328 32.0008-32.0008z"/></g><path d="m0 0h2048v2048h-2048z" fill="none"/></svg>